<mxfile host="app.diagrams.net" modified="2021-09-08T10:45:00.783Z" agent="5.0 (Windows NT 10.0; Win64; x64) AppleWebKit/537.36 (KHTML, like Gecko) Chrome/92.0.4515.159 Safari/537.36" etag="K9awjqvo1NiZ_KgT8cUj" version="15.1.1" type="github" pages="2">
  <diagram name="Page-1" id="12e1b939-464a-85fe-373e-61e167be1490">
    <mxGraphModel dx="3708.5" dy="1090" grid="1" gridSize="10" guides="1" tooltips="1" connect="1" arrows="1" fold="1" page="1" pageScale="1.5" pageWidth="1169" pageHeight="826" background="none" math="0" shadow="0">
      <root>
        <mxCell id="0" />
        <mxCell id="1" parent="0" />
        <mxCell id="Mgbi5jZME9OmvZ7nnehs-18" value="" style="whiteSpace=wrap;html=1;rounded=1;shadow=0;strokeWidth=8;fontSize=20;align=center;fillColor=#FE8003;strokeColor=#FFFFFF;" vertex="1" parent="1">
          <mxGeometry x="1178" y="405" width="280" height="430" as="geometry" />
        </mxCell>
        <mxCell id="Mgbi5jZME9OmvZ7nnehs-17" value="" style="whiteSpace=wrap;html=1;rounded=1;shadow=0;strokeWidth=8;fontSize=20;align=center;fillColor=#FE6600;strokeColor=#FFFFFF;" vertex="1" parent="1">
          <mxGeometry x="1458" y="405" width="280" height="430" as="geometry" />
        </mxCell>
        <mxCell id="60da8b9f42644d3a-2" value="" style="whiteSpace=wrap;html=1;rounded=1;shadow=0;strokeWidth=8;fontSize=20;align=center;fillColor=#FED217;strokeColor=#FFFFFF;" parent="1" vertex="1">
          <mxGeometry x="58" y="405" width="280" height="430" as="geometry" />
        </mxCell>
        <mxCell id="60da8b9f42644d3a-3" value="Analysis and Discovery" style="text;html=1;strokeColor=none;fillColor=none;align=center;verticalAlign=middle;whiteSpace=wrap;rounded=0;shadow=0;fontSize=27;fontColor=#FFFFFF;fontStyle=1" parent="1" vertex="1">
          <mxGeometry x="58" y="425" width="280" height="60" as="geometry" />
        </mxCell>
        <mxCell id="60da8b9f42644d3a-4" value="&lt;div style=&quot;text-align: justify&quot;&gt;&lt;ul&gt;&lt;li&gt;&lt;span&gt;&lt;font style=&quot;font-size: 18px&quot; color=&quot;#424242&quot;&gt;&lt;b&gt;Infra and Application discovery&amp;nbsp;&lt;/b&gt;&lt;/font&gt;&lt;/span&gt;&lt;/li&gt;&lt;li&gt;&lt;span&gt;&lt;font size=&quot;3&quot; color=&quot;#424242&quot;&gt;&lt;b&gt;Budget and Timeline&lt;/b&gt;&lt;/font&gt;&lt;/span&gt;&lt;/li&gt;&lt;li&gt;&lt;span&gt;&lt;font size=&quot;3&quot; color=&quot;#424242&quot;&gt;&lt;b&gt;Application to Infra mapping&amp;nbsp;&amp;nbsp;&lt;/b&gt;&lt;/font&gt;&lt;/span&gt;&lt;/li&gt;&lt;li&gt;&lt;font size=&quot;3&quot; color=&quot;#424242&quot;&gt;&lt;b&gt;Migration Tools&amp;nbsp;&lt;/b&gt;&lt;/font&gt;&lt;/li&gt;&lt;/ul&gt;&lt;/div&gt;&lt;div style=&quot;text-align: justify&quot;&gt;&lt;br&gt;&lt;/div&gt;" style="text;html=1;strokeColor=none;fillColor=none;align=left;verticalAlign=middle;whiteSpace=wrap;rounded=0;shadow=0;fontSize=14;fontColor=#333333;" parent="1" vertex="1">
          <mxGeometry x="38" y="687.5" width="280" height="155" as="geometry" />
        </mxCell>
        <mxCell id="60da8b9f42644d3a-6" value="" style="line;strokeWidth=2;html=1;rounded=0;shadow=0;fontSize=27;align=center;fillColor=none;strokeColor=#FFFFFF;" parent="1" vertex="1">
          <mxGeometry x="78" y="485" width="240" height="10" as="geometry" />
        </mxCell>
        <mxCell id="60da8b9f42644d3a-7" value="" style="line;strokeWidth=2;html=1;rounded=0;shadow=0;fontSize=27;align=center;fillColor=none;strokeColor=#FFFFFF;" parent="1" vertex="1">
          <mxGeometry x="72" y="695" width="240" height="10" as="geometry" />
        </mxCell>
        <mxCell id="60da8b9f42644d3a-8" value="" style="ellipse;whiteSpace=wrap;html=1;rounded=0;shadow=0;strokeWidth=6;fontSize=14;align=center;" parent="1" vertex="1">
          <mxGeometry x="1" y="545" width="115" height="115" as="geometry" />
        </mxCell>
        <mxCell id="60da8b9f42644d3a-9" value="" style="html=1;shadow=0;dashed=0;align=center;verticalAlign=middle;shape=mxgraph.arrows2.stylisedArrow;dy=0.6;dx=40;notch=15;feather=0.4;rounded=0;strokeWidth=1;fontSize=27;strokeColor=none;fillColor=#fff2cc;" parent="1" vertex="1">
          <mxGeometry x="148" y="573" width="100" height="60" as="geometry" />
        </mxCell>
        <mxCell id="60da8b9f42644d3a-17" value="" style="whiteSpace=wrap;html=1;rounded=1;shadow=0;strokeWidth=8;fontSize=20;align=center;fillColor=#FFC001;strokeColor=#FFFFFF;" parent="1" vertex="1">
          <mxGeometry x="338" y="405" width="280" height="430" as="geometry" />
        </mxCell>
        <mxCell id="60da8b9f42644d3a-18" value="Planning" style="text;html=1;strokeColor=none;fillColor=none;align=center;verticalAlign=middle;whiteSpace=wrap;rounded=0;shadow=0;fontSize=27;fontColor=#FFFFFF;fontStyle=1" parent="1" vertex="1">
          <mxGeometry x="338" y="425" width="280" height="60" as="geometry" />
        </mxCell>
        <mxCell id="60da8b9f42644d3a-19" value="&lt;ul&gt;&lt;li&gt;&lt;b style=&quot;font-size: 18px&quot;&gt;&lt;font color=&quot;#474747&quot;&gt;Migration Plan and Effort&amp;nbsp;&lt;/font&gt;&lt;/b&gt;&lt;/li&gt;&lt;li&gt;&lt;b style=&quot;font-size: 18px&quot;&gt;&lt;font color=&quot;#474747&quot;&gt;Migration tools selection&lt;/font&gt;&lt;/b&gt;&lt;/li&gt;&lt;li&gt;&lt;b style=&quot;font-size: 18px&quot;&gt;&lt;font color=&quot;#474747&quot;&gt;Create implementation plans&lt;/font&gt;&lt;/b&gt;&lt;/li&gt;&lt;li&gt;&lt;b style=&quot;font-size: 18px&quot;&gt;&lt;font color=&quot;#474747&quot;&gt;Application Grouping&amp;nbsp;&amp;nbsp;&lt;/font&gt;&lt;/b&gt;&lt;/li&gt;&lt;/ul&gt;" style="text;html=1;strokeColor=none;fillColor=none;align=left;verticalAlign=middle;whiteSpace=wrap;rounded=0;shadow=0;fontSize=14;fontColor=#FFFFFF;" parent="1" vertex="1">
          <mxGeometry x="320" y="715" width="298" height="90" as="geometry" />
        </mxCell>
        <mxCell id="60da8b9f42644d3a-20" value="" style="line;strokeWidth=2;html=1;rounded=0;shadow=0;fontSize=27;align=center;fillColor=none;strokeColor=#FFFFFF;" parent="1" vertex="1">
          <mxGeometry x="358" y="485" width="240" height="10" as="geometry" />
        </mxCell>
        <mxCell id="60da8b9f42644d3a-21" value="" style="line;strokeWidth=2;html=1;rounded=0;shadow=0;fontSize=27;align=center;fillColor=none;strokeColor=#FFFFFF;" parent="1" vertex="1">
          <mxGeometry x="358" y="695" width="240" height="10" as="geometry" />
        </mxCell>
        <mxCell id="60da8b9f42644d3a-22" value="" style="ellipse;whiteSpace=wrap;html=1;rounded=0;shadow=0;strokeWidth=6;fontSize=14;align=center;" parent="1" vertex="1">
          <mxGeometry x="281" y="545" width="115" height="115" as="geometry" />
        </mxCell>
        <mxCell id="60da8b9f42644d3a-23" value="" style="html=1;shadow=0;dashed=0;align=center;verticalAlign=middle;shape=mxgraph.arrows2.stylisedArrow;dy=0.6;dx=40;notch=15;feather=0.4;rounded=0;strokeWidth=1;fontSize=27;strokeColor=none;fillColor=#fff2cc;" parent="1" vertex="1">
          <mxGeometry x="428" y="573" width="100" height="60" as="geometry" />
        </mxCell>
        <mxCell id="60da8b9f42644d3a-24" value="" style="whiteSpace=wrap;html=1;rounded=1;shadow=0;strokeWidth=8;fontSize=20;align=center;fillColor=#FFB001;strokeColor=#FFFFFF;" parent="1" vertex="1">
          <mxGeometry x="618" y="405" width="280" height="430" as="geometry" />
        </mxCell>
        <mxCell id="60da8b9f42644d3a-25" value="Design" style="text;html=1;strokeColor=none;fillColor=none;align=center;verticalAlign=middle;whiteSpace=wrap;rounded=0;shadow=0;fontSize=27;fontColor=#FFFFFF;fontStyle=1" parent="1" vertex="1">
          <mxGeometry x="618" y="425" width="280" height="60" as="geometry" />
        </mxCell>
        <mxCell id="60da8b9f42644d3a-26" value="&lt;div style=&quot;text-align: justify&quot;&gt;&lt;ul&gt;&lt;li&gt;&lt;font style=&quot;font-size: 18px&quot; color=&quot;#000000&quot;&gt;&lt;b&gt;&lt;font&gt;HLD and LLD &lt;/font&gt;preparation&lt;font&gt;&amp;nbsp;&lt;/font&gt;&lt;/b&gt;&lt;/font&gt;&lt;/li&gt;&lt;li&gt;&lt;font size=&quot;3&quot; color=&quot;#000000&quot;&gt;&lt;b&gt;Risk Identification, Analysis and Mitigation&amp;nbsp;&lt;/b&gt;&lt;/font&gt;&lt;/li&gt;&lt;/ul&gt;&lt;/div&gt;&lt;div&gt;&lt;font color=&quot;#575757&quot;&gt;&lt;br&gt;&lt;/font&gt;&lt;/div&gt;" style="text;html=1;strokeColor=none;fillColor=none;align=center;verticalAlign=middle;whiteSpace=wrap;rounded=0;shadow=0;fontSize=14;fontColor=#FFFFFF;" parent="1" vertex="1">
          <mxGeometry x="620" y="715" width="260" height="90" as="geometry" />
        </mxCell>
        <mxCell id="60da8b9f42644d3a-27" value="" style="line;strokeWidth=2;html=1;rounded=0;shadow=0;fontSize=27;align=center;fillColor=none;strokeColor=#FFFFFF;" parent="1" vertex="1">
          <mxGeometry x="638" y="485" width="240" height="10" as="geometry" />
        </mxCell>
        <mxCell id="60da8b9f42644d3a-28" value="" style="line;strokeWidth=2;html=1;rounded=0;shadow=0;fontSize=27;align=center;fillColor=none;strokeColor=#FFFFFF;" parent="1" vertex="1">
          <mxGeometry x="638" y="697.5" width="240" height="5" as="geometry" />
        </mxCell>
        <mxCell id="60da8b9f42644d3a-29" value="" style="ellipse;whiteSpace=wrap;html=1;rounded=0;shadow=0;strokeWidth=6;fontSize=14;align=center;" parent="1" vertex="1">
          <mxGeometry x="561" y="545" width="115" height="115" as="geometry" />
        </mxCell>
        <mxCell id="60da8b9f42644d3a-30" value="" style="html=1;shadow=0;dashed=0;align=center;verticalAlign=middle;shape=mxgraph.arrows2.stylisedArrow;dy=0.6;dx=40;notch=15;feather=0.4;rounded=0;strokeWidth=1;fontSize=27;strokeColor=none;fillColor=#fff2cc;" parent="1" vertex="1">
          <mxGeometry x="708" y="573" width="100" height="60" as="geometry" />
        </mxCell>
        <mxCell id="60da8b9f42644d3a-31" value="" style="whiteSpace=wrap;html=1;rounded=1;shadow=0;strokeWidth=8;fontSize=20;align=center;fillColor=#FE9A05;strokeColor=#FFFFFF;" parent="1" vertex="1">
          <mxGeometry x="898" y="405" width="280" height="430" as="geometry" />
        </mxCell>
        <mxCell id="60da8b9f42644d3a-32" value="Migration" style="text;html=1;strokeColor=none;fillColor=none;align=center;verticalAlign=middle;whiteSpace=wrap;rounded=0;shadow=0;fontSize=27;fontColor=#FFFFFF;fontStyle=1" parent="1" vertex="1">
          <mxGeometry x="898" y="425" width="280" height="60" as="geometry" />
        </mxCell>
        <mxCell id="60da8b9f42644d3a-33" value="&lt;div style=&quot;text-align: left&quot;&gt;&lt;span style=&quot;color: rgb(84 , 84 , 84)&quot;&gt;New Infrastructure foundation&lt;/span&gt;&lt;/div&gt;&lt;font color=&quot;#545454&quot;&gt;&lt;div style=&quot;text-align: left&quot;&gt;&lt;span&gt;Establish connectivity between old and&amp;nbsp;&lt;/span&gt;&lt;/div&gt;&lt;div style=&quot;text-align: left&quot;&gt;&lt;span&gt;new datacenter&amp;nbsp;&lt;/span&gt;&lt;/div&gt;&lt;div style=&quot;text-align: left&quot;&gt;&lt;span&gt;Setup pilot infrastructure and validate&amp;nbsp;&lt;/span&gt;&lt;/div&gt;&lt;div style=&quot;text-align: left&quot;&gt;&lt;span&gt;&amp;nbsp;&lt;/span&gt;&lt;/div&gt;&lt;/font&gt;" style="text;html=1;strokeColor=none;fillColor=none;align=center;verticalAlign=middle;whiteSpace=wrap;rounded=0;shadow=0;fontSize=14;fontColor=#FFFFFF;" parent="1" vertex="1">
          <mxGeometry x="898" y="725" width="280" height="90" as="geometry" />
        </mxCell>
        <mxCell id="60da8b9f42644d3a-34" value="" style="line;strokeWidth=2;html=1;rounded=0;shadow=0;fontSize=27;align=center;fillColor=none;strokeColor=#FFFFFF;" parent="1" vertex="1">
          <mxGeometry x="918" y="485" width="240" height="10" as="geometry" />
        </mxCell>
        <mxCell id="60da8b9f42644d3a-35" value="" style="line;strokeWidth=2;html=1;rounded=0;shadow=0;fontSize=27;align=center;fillColor=none;strokeColor=#FFFFFF;" parent="1" vertex="1">
          <mxGeometry x="918" y="705" width="240" height="10" as="geometry" />
        </mxCell>
        <mxCell id="60da8b9f42644d3a-36" value="" style="ellipse;whiteSpace=wrap;html=1;rounded=0;shadow=0;strokeWidth=6;fontSize=14;align=center;" parent="1" vertex="1">
          <mxGeometry x="841" y="545" width="115" height="115" as="geometry" />
        </mxCell>
        <mxCell id="60da8b9f42644d3a-37" value="" style="html=1;shadow=0;dashed=0;align=center;verticalAlign=middle;shape=mxgraph.arrows2.stylisedArrow;dy=0.6;dx=40;notch=15;feather=0.4;rounded=0;strokeWidth=1;fontSize=27;strokeColor=none;fillColor=#fff2cc;" parent="1" vertex="1">
          <mxGeometry x="988" y="573" width="100" height="60" as="geometry" />
        </mxCell>
        <mxCell id="60da8b9f42644d3a-38" value="" style="ellipse;whiteSpace=wrap;html=1;rounded=0;shadow=0;strokeWidth=6;fontSize=14;align=center;" parent="1" vertex="1">
          <mxGeometry x="1121" y="545" width="115" height="115" as="geometry" />
        </mxCell>
        <mxCell id="Mgbi5jZME9OmvZ7nnehs-1" value="&lt;h2&gt;&lt;font size=&quot;1&quot; color=&quot;#ffffff&quot;&gt;&lt;b style=&quot;font-size: 42px&quot;&gt;Migration Planning&amp;nbsp;&lt;/b&gt;&lt;/font&gt;&lt;/h2&gt;" style="rounded=1;whiteSpace=wrap;html=1;strokeColor=#006EAF;fillColor=#006666;fontColor=#ffffff;" vertex="1" parent="1">
          <mxGeometry x="58" y="320" width="1680" height="60" as="geometry" />
        </mxCell>
        <mxCell id="Mgbi5jZME9OmvZ7nnehs-10" value="Post Migration Tasks" style="text;html=1;strokeColor=none;fillColor=none;align=center;verticalAlign=middle;whiteSpace=wrap;rounded=0;shadow=0;fontSize=27;fontColor=#FFFFFF;fontStyle=1" vertex="1" parent="1">
          <mxGeometry x="1458" y="420" width="280" height="60" as="geometry" />
        </mxCell>
        <mxCell id="Mgbi5jZME9OmvZ7nnehs-11" value="&lt;div style=&quot;text-align: left&quot;&gt;&lt;span style=&quot;color: rgb(84 , 84 , 84)&quot;&gt;New Infrastructure foundation&lt;/span&gt;&lt;/div&gt;&lt;font color=&quot;#545454&quot;&gt;&lt;div style=&quot;text-align: left&quot;&gt;&lt;span&gt;Establish connectivity between old and&amp;nbsp;&lt;/span&gt;&lt;/div&gt;&lt;div style=&quot;text-align: left&quot;&gt;&lt;span&gt;new datacenter&amp;nbsp;&lt;/span&gt;&lt;/div&gt;&lt;div style=&quot;text-align: left&quot;&gt;&lt;span&gt;Setup pilot infrastructure and validate&amp;nbsp;&lt;/span&gt;&lt;/div&gt;&lt;div style=&quot;text-align: left&quot;&gt;&lt;span&gt;&amp;nbsp;&lt;/span&gt;&lt;/div&gt;&lt;/font&gt;" style="text;html=1;strokeColor=none;fillColor=none;align=center;verticalAlign=middle;whiteSpace=wrap;rounded=0;shadow=0;fontSize=14;fontColor=#FFFFFF;" vertex="1" parent="1">
          <mxGeometry x="1458" y="732.5" width="280" height="90" as="geometry" />
        </mxCell>
        <mxCell id="Mgbi5jZME9OmvZ7nnehs-12" value="" style="line;strokeWidth=2;html=1;rounded=0;shadow=0;fontSize=27;align=center;fillColor=none;strokeColor=#FFFFFF;" vertex="1" parent="1">
          <mxGeometry x="1478" y="480" width="240" height="10" as="geometry" />
        </mxCell>
        <mxCell id="Mgbi5jZME9OmvZ7nnehs-13" value="" style="line;strokeWidth=2;html=1;rounded=0;shadow=0;fontSize=27;align=center;fillColor=none;strokeColor=#FFFFFF;" vertex="1" parent="1">
          <mxGeometry x="1478" y="708" width="240" height="10" as="geometry" />
        </mxCell>
        <mxCell id="Mgbi5jZME9OmvZ7nnehs-14" value="" style="ellipse;whiteSpace=wrap;html=1;rounded=0;shadow=0;strokeWidth=6;fontSize=14;align=center;" vertex="1" parent="1">
          <mxGeometry x="1384" y="545.5" width="115" height="115" as="geometry" />
        </mxCell>
        <mxCell id="Mgbi5jZME9OmvZ7nnehs-20" value="" style="html=1;shadow=0;dashed=0;align=center;verticalAlign=middle;shape=mxgraph.arrows2.stylisedArrow;dy=0.6;dx=40;notch=15;feather=0.4;rounded=0;strokeWidth=1;fontSize=27;strokeColor=none;fillColor=#fff2cc;" vertex="1" parent="1">
          <mxGeometry x="1268" y="572.5" width="100" height="60" as="geometry" />
        </mxCell>
        <mxCell id="Mgbi5jZME9OmvZ7nnehs-23" value="" style="line;strokeWidth=2;html=1;rounded=0;shadow=0;fontSize=27;align=center;fillColor=none;strokeColor=#FFFFFF;" vertex="1" parent="1">
          <mxGeometry x="1189" y="485" width="240" height="10" as="geometry" />
        </mxCell>
        <mxCell id="Mgbi5jZME9OmvZ7nnehs-26" value="&lt;div style=&quot;text-align: left&quot;&gt;&lt;span style=&quot;color: rgb(84 , 84 , 84)&quot;&gt;New Infrastructure foundation&lt;/span&gt;&lt;/div&gt;&lt;font color=&quot;#545454&quot;&gt;&lt;div style=&quot;text-align: left&quot;&gt;&lt;span&gt;Establish connectivity between old and&amp;nbsp;&lt;/span&gt;&lt;/div&gt;&lt;div style=&quot;text-align: left&quot;&gt;&lt;span&gt;new datacenter&amp;nbsp;&lt;/span&gt;&lt;/div&gt;&lt;div style=&quot;text-align: left&quot;&gt;&lt;span&gt;Setup pilot infrastructure and validate&amp;nbsp;&lt;/span&gt;&lt;/div&gt;&lt;div style=&quot;text-align: left&quot;&gt;&lt;span&gt;&amp;nbsp;&lt;/span&gt;&lt;/div&gt;&lt;/font&gt;" style="text;html=1;strokeColor=none;fillColor=none;align=center;verticalAlign=middle;whiteSpace=wrap;rounded=0;shadow=0;fontSize=14;fontColor=#FFFFFF;" vertex="1" parent="1">
          <mxGeometry x="1178" y="728" width="280" height="90" as="geometry" />
        </mxCell>
        <mxCell id="Mgbi5jZME9OmvZ7nnehs-27" value="" style="line;strokeWidth=2;html=1;rounded=0;shadow=0;fontSize=27;align=center;fillColor=none;strokeColor=#FFFFFF;" vertex="1" parent="1">
          <mxGeometry x="1198" y="705" width="240" height="10" as="geometry" />
        </mxCell>
        <mxCell id="Mgbi5jZME9OmvZ7nnehs-30" value="Validation and Acceptance&amp;nbsp;" style="text;html=1;strokeColor=none;fillColor=none;align=center;verticalAlign=middle;whiteSpace=wrap;rounded=0;shadow=0;fontSize=27;fontColor=#FFFFFF;fontStyle=1" vertex="1" parent="1">
          <mxGeometry x="1178" y="425" width="280" height="60" as="geometry" />
        </mxCell>
        <mxCell id="Mgbi5jZME9OmvZ7nnehs-32" value="" style="aspect=fixed;perimeter=ellipsePerimeter;html=1;align=center;shadow=0;dashed=0;spacingTop=3;image;image=img/lib/active_directory/writer.svg;fontColor=#333333;fillColor=#006666;" vertex="1" parent="1">
          <mxGeometry x="298.5" y="557.5500000000001" width="80" height="83.33" as="geometry" />
        </mxCell>
        <mxCell id="Mgbi5jZME9OmvZ7nnehs-38" value="Rule" style="sketch=0;outlineConnect=0;fontColor=#232F3E;gradientColor=none;strokeColor=#232F3E;fillColor=#ffffff;dashed=0;verticalLabelPosition=bottom;verticalAlign=top;align=center;html=1;fontSize=12;fontStyle=0;aspect=fixed;shape=mxgraph.aws4.resourceIcon;resIcon=mxgraph.aws4.rule_2;" vertex="1" parent="1">
          <mxGeometry x="1134.64" y="555.36" width="87.72" height="87.72" as="geometry" />
        </mxCell>
        <mxCell id="Mgbi5jZME9OmvZ7nnehs-44" value="" style="sketch=0;outlineConnect=0;fontColor=#232F3E;gradientColor=none;strokeColor=none;dashed=0;verticalLabelPosition=bottom;verticalAlign=top;align=center;html=1;fontSize=12;fontStyle=0;aspect=fixed;pointerEvents=1;shape=mxgraph.aws4.systems_manager_opscenter;fillColor=#190033;" vertex="1" parent="1">
          <mxGeometry x="1400" y="561" width="79" height="79" as="geometry" />
        </mxCell>
        <mxCell id="Mgbi5jZME9OmvZ7nnehs-48" value="" style="sketch=0;aspect=fixed;html=1;points=[];align=center;image;fontSize=12;image=img/lib/mscae/Batch_AI.svg;fillColor=#006666;fontColor=#333333;" vertex="1" parent="1">
          <mxGeometry x="860.92" y="555.36" width="74.16" height="103" as="geometry" />
        </mxCell>
        <mxCell id="Mgbi5jZME9OmvZ7nnehs-49" value="" style="sketch=0;pointerEvents=1;shadow=0;dashed=0;html=1;strokeColor=none;labelPosition=center;verticalLabelPosition=bottom;verticalAlign=top;align=center;fillColor=#505050;shape=mxgraph.mscae.oms.log_search;fontColor=#333333;" vertex="1" parent="1">
          <mxGeometry x="-1" y="574" width="72" height="59" as="geometry" />
        </mxCell>
        <mxCell id="Mgbi5jZME9OmvZ7nnehs-51" value="" style="sketch=0;pointerEvents=1;shadow=0;dashed=0;html=1;strokeColor=none;labelPosition=center;verticalLabelPosition=bottom;verticalAlign=top;align=center;fillColor=#505050;shape=mxgraph.mscae.oms.log_management;fontColor=#333333;" vertex="1" parent="1">
          <mxGeometry x="52" y="571.5" width="49" height="67.5" as="geometry" />
        </mxCell>
        <mxCell id="Mgbi5jZME9OmvZ7nnehs-52" value="" style="sketch=0;outlineConnect=0;fontColor=#232F3E;gradientColor=none;strokeColor=none;dashed=0;verticalLabelPosition=bottom;verticalAlign=top;align=center;html=1;fontSize=12;fontStyle=0;aspect=fixed;pointerEvents=1;shape=mxgraph.aws4.organizations_management_account;fillColor=#000033;" vertex="1" parent="1">
          <mxGeometry x="570" y="552.96" width="92.07" height="97.04" as="geometry" />
        </mxCell>
        <mxCell id="Mgbi5jZME9OmvZ7nnehs-53" value="" style="outlineConnect=0;dashed=0;verticalLabelPosition=bottom;verticalAlign=top;align=center;html=1;shape=mxgraph.aws3.users;gradientColor=none;fontColor=#333333;fillColor=#333333;" vertex="1" parent="1">
          <mxGeometry x="1590" y="550" width="86" height="86" as="geometry" />
        </mxCell>
      </root>
    </mxGraphModel>
  </diagram>
  <diagram id="AjVxWTOqyIHjBycvIR92" name="Page-2">
    <mxGraphModel dx="3061" dy="1246" grid="1" gridSize="10" guides="1" tooltips="1" connect="1" arrows="1" fold="1" page="1" pageScale="1" pageWidth="827" pageHeight="1169" math="0" shadow="0">
      <root>
        <mxCell id="GBv7Qy-Bken8bCMUCpsC-0" />
        <mxCell id="GBv7Qy-Bken8bCMUCpsC-1" parent="GBv7Qy-Bken8bCMUCpsC-0" />
        <mxCell id="GBv7Qy-Bken8bCMUCpsC-2" value="" style="whiteSpace=wrap;html=1;rounded=1;shadow=0;strokeWidth=8;fontSize=20;align=center;fillColor=#FE8003;strokeColor=#FFFFFF;" vertex="1" parent="GBv7Qy-Bken8bCMUCpsC-1">
          <mxGeometry x="1178" y="405" width="280" height="430" as="geometry" />
        </mxCell>
        <mxCell id="GBv7Qy-Bken8bCMUCpsC-3" value="" style="whiteSpace=wrap;html=1;rounded=1;shadow=0;strokeWidth=8;fontSize=20;align=center;fillColor=#FE6600;strokeColor=#FFFFFF;" vertex="1" parent="GBv7Qy-Bken8bCMUCpsC-1">
          <mxGeometry x="1458" y="405" width="280" height="430" as="geometry" />
        </mxCell>
        <mxCell id="GBv7Qy-Bken8bCMUCpsC-4" value="" style="whiteSpace=wrap;html=1;rounded=1;shadow=0;strokeWidth=8;fontSize=20;align=center;fillColor=#FED217;strokeColor=#FFFFFF;" vertex="1" parent="GBv7Qy-Bken8bCMUCpsC-1">
          <mxGeometry x="58" y="405" width="280" height="430" as="geometry" />
        </mxCell>
        <mxCell id="GBv7Qy-Bken8bCMUCpsC-5" value="Analysis and Discovery" style="text;html=1;strokeColor=none;fillColor=none;align=center;verticalAlign=middle;whiteSpace=wrap;rounded=0;shadow=0;fontSize=27;fontColor=#FFFFFF;fontStyle=1" vertex="1" parent="GBv7Qy-Bken8bCMUCpsC-1">
          <mxGeometry x="58" y="425" width="280" height="60" as="geometry" />
        </mxCell>
        <mxCell id="GBv7Qy-Bken8bCMUCpsC-6" value="&lt;div style=&quot;text-align: justify&quot;&gt;&lt;ul&gt;&lt;li&gt;&lt;span&gt;&lt;font style=&quot;font-size: 18px&quot; color=&quot;#424242&quot;&gt;&lt;b&gt;Infra and Application discovery&amp;nbsp;&lt;/b&gt;&lt;/font&gt;&lt;/span&gt;&lt;/li&gt;&lt;li&gt;&lt;span&gt;&lt;font size=&quot;3&quot; color=&quot;#424242&quot;&gt;&lt;b&gt;Budget and Timeline&lt;/b&gt;&lt;/font&gt;&lt;/span&gt;&lt;/li&gt;&lt;li&gt;&lt;span&gt;&lt;font size=&quot;3&quot; color=&quot;#424242&quot;&gt;&lt;b&gt;Application to Infra mapping&amp;nbsp;&amp;nbsp;&lt;/b&gt;&lt;/font&gt;&lt;/span&gt;&lt;/li&gt;&lt;li&gt;&lt;font size=&quot;3&quot; color=&quot;#424242&quot;&gt;&lt;b&gt;Migration Tools&amp;nbsp;&lt;/b&gt;&lt;/font&gt;&lt;/li&gt;&lt;/ul&gt;&lt;/div&gt;&lt;div style=&quot;text-align: justify&quot;&gt;&lt;br&gt;&lt;/div&gt;" style="text;html=1;strokeColor=none;fillColor=none;align=left;verticalAlign=middle;whiteSpace=wrap;rounded=0;shadow=0;fontSize=14;fontColor=#333333;" vertex="1" parent="GBv7Qy-Bken8bCMUCpsC-1">
          <mxGeometry x="38" y="687.5" width="280" height="155" as="geometry" />
        </mxCell>
        <mxCell id="GBv7Qy-Bken8bCMUCpsC-7" value="" style="line;strokeWidth=2;html=1;rounded=0;shadow=0;fontSize=27;align=center;fillColor=none;strokeColor=#FFFFFF;" vertex="1" parent="GBv7Qy-Bken8bCMUCpsC-1">
          <mxGeometry x="78" y="485" width="240" height="10" as="geometry" />
        </mxCell>
        <mxCell id="GBv7Qy-Bken8bCMUCpsC-8" value="" style="line;strokeWidth=2;html=1;rounded=0;shadow=0;fontSize=27;align=center;fillColor=none;strokeColor=#FFFFFF;" vertex="1" parent="GBv7Qy-Bken8bCMUCpsC-1">
          <mxGeometry x="72" y="695" width="240" height="10" as="geometry" />
        </mxCell>
        <mxCell id="GBv7Qy-Bken8bCMUCpsC-9" value="" style="ellipse;whiteSpace=wrap;html=1;rounded=0;shadow=0;strokeWidth=6;fontSize=14;align=center;" vertex="1" parent="GBv7Qy-Bken8bCMUCpsC-1">
          <mxGeometry x="1" y="545" width="115" height="115" as="geometry" />
        </mxCell>
        <mxCell id="GBv7Qy-Bken8bCMUCpsC-10" value="" style="html=1;shadow=0;dashed=0;align=center;verticalAlign=middle;shape=mxgraph.arrows2.stylisedArrow;dy=0.6;dx=40;notch=15;feather=0.4;rounded=0;strokeWidth=1;fontSize=27;strokeColor=none;fillColor=#fff2cc;" vertex="1" parent="GBv7Qy-Bken8bCMUCpsC-1">
          <mxGeometry x="148" y="573" width="100" height="60" as="geometry" />
        </mxCell>
        <mxCell id="GBv7Qy-Bken8bCMUCpsC-11" value="" style="whiteSpace=wrap;html=1;rounded=1;shadow=0;strokeWidth=8;fontSize=20;align=center;fillColor=#FFC001;strokeColor=#FFFFFF;" vertex="1" parent="GBv7Qy-Bken8bCMUCpsC-1">
          <mxGeometry x="338" y="405" width="280" height="430" as="geometry" />
        </mxCell>
        <mxCell id="GBv7Qy-Bken8bCMUCpsC-12" value="Planning" style="text;html=1;strokeColor=none;fillColor=none;align=center;verticalAlign=middle;whiteSpace=wrap;rounded=0;shadow=0;fontSize=27;fontColor=#FFFFFF;fontStyle=1" vertex="1" parent="GBv7Qy-Bken8bCMUCpsC-1">
          <mxGeometry x="338" y="425" width="280" height="60" as="geometry" />
        </mxCell>
        <mxCell id="GBv7Qy-Bken8bCMUCpsC-13" value="&lt;ul&gt;&lt;li&gt;&lt;b style=&quot;font-size: 18px&quot;&gt;&lt;font color=&quot;#474747&quot;&gt;Migration Plan and Effort&amp;nbsp;&lt;/font&gt;&lt;/b&gt;&lt;/li&gt;&lt;li&gt;&lt;b style=&quot;font-size: 18px&quot;&gt;&lt;font color=&quot;#474747&quot;&gt;Migration tools selection&lt;/font&gt;&lt;/b&gt;&lt;/li&gt;&lt;li&gt;&lt;b style=&quot;font-size: 18px&quot;&gt;&lt;font color=&quot;#474747&quot;&gt;Create implementation plans&lt;/font&gt;&lt;/b&gt;&lt;/li&gt;&lt;li&gt;&lt;b style=&quot;font-size: 18px&quot;&gt;&lt;font color=&quot;#474747&quot;&gt;Application Grouping&amp;nbsp;&amp;nbsp;&lt;/font&gt;&lt;/b&gt;&lt;/li&gt;&lt;/ul&gt;" style="text;html=1;strokeColor=none;fillColor=none;align=left;verticalAlign=middle;whiteSpace=wrap;rounded=0;shadow=0;fontSize=14;fontColor=#FFFFFF;" vertex="1" parent="GBv7Qy-Bken8bCMUCpsC-1">
          <mxGeometry x="320" y="715" width="298" height="90" as="geometry" />
        </mxCell>
        <mxCell id="GBv7Qy-Bken8bCMUCpsC-14" value="" style="line;strokeWidth=2;html=1;rounded=0;shadow=0;fontSize=27;align=center;fillColor=none;strokeColor=#FFFFFF;" vertex="1" parent="GBv7Qy-Bken8bCMUCpsC-1">
          <mxGeometry x="358" y="485" width="240" height="10" as="geometry" />
        </mxCell>
        <mxCell id="GBv7Qy-Bken8bCMUCpsC-15" value="" style="line;strokeWidth=2;html=1;rounded=0;shadow=0;fontSize=27;align=center;fillColor=none;strokeColor=#FFFFFF;" vertex="1" parent="GBv7Qy-Bken8bCMUCpsC-1">
          <mxGeometry x="358" y="695" width="240" height="10" as="geometry" />
        </mxCell>
        <mxCell id="GBv7Qy-Bken8bCMUCpsC-16" value="" style="ellipse;whiteSpace=wrap;html=1;rounded=0;shadow=0;strokeWidth=6;fontSize=14;align=center;" vertex="1" parent="GBv7Qy-Bken8bCMUCpsC-1">
          <mxGeometry x="281" y="545" width="115" height="115" as="geometry" />
        </mxCell>
        <mxCell id="GBv7Qy-Bken8bCMUCpsC-17" value="" style="html=1;shadow=0;dashed=0;align=center;verticalAlign=middle;shape=mxgraph.arrows2.stylisedArrow;dy=0.6;dx=40;notch=15;feather=0.4;rounded=0;strokeWidth=1;fontSize=27;strokeColor=none;fillColor=#fff2cc;" vertex="1" parent="GBv7Qy-Bken8bCMUCpsC-1">
          <mxGeometry x="428" y="573" width="100" height="60" as="geometry" />
        </mxCell>
        <mxCell id="GBv7Qy-Bken8bCMUCpsC-18" value="" style="whiteSpace=wrap;html=1;rounded=1;shadow=0;strokeWidth=8;fontSize=20;align=center;fillColor=#FFB001;strokeColor=#FFFFFF;" vertex="1" parent="GBv7Qy-Bken8bCMUCpsC-1">
          <mxGeometry x="618" y="405" width="280" height="430" as="geometry" />
        </mxCell>
        <mxCell id="GBv7Qy-Bken8bCMUCpsC-19" value="Design" style="text;html=1;strokeColor=none;fillColor=none;align=center;verticalAlign=middle;whiteSpace=wrap;rounded=0;shadow=0;fontSize=27;fontColor=#FFFFFF;fontStyle=1" vertex="1" parent="GBv7Qy-Bken8bCMUCpsC-1">
          <mxGeometry x="618" y="425" width="280" height="60" as="geometry" />
        </mxCell>
        <mxCell id="GBv7Qy-Bken8bCMUCpsC-20" value="&lt;div style=&quot;text-align: justify&quot;&gt;&lt;ul&gt;&lt;li&gt;&lt;font style=&quot;font-size: 18px&quot; color=&quot;#000000&quot;&gt;&lt;b&gt;&lt;font&gt;HLD and LLD &lt;/font&gt;preparation&lt;font&gt;&amp;nbsp;&lt;/font&gt;&lt;/b&gt;&lt;/font&gt;&lt;/li&gt;&lt;li&gt;&lt;font size=&quot;3&quot; color=&quot;#000000&quot;&gt;&lt;b&gt;Risk Identification, Analysis and Mitigation&amp;nbsp;&lt;/b&gt;&lt;/font&gt;&lt;/li&gt;&lt;/ul&gt;&lt;/div&gt;&lt;div&gt;&lt;font color=&quot;#575757&quot;&gt;&lt;br&gt;&lt;/font&gt;&lt;/div&gt;" style="text;html=1;strokeColor=none;fillColor=none;align=center;verticalAlign=middle;whiteSpace=wrap;rounded=0;shadow=0;fontSize=14;fontColor=#FFFFFF;" vertex="1" parent="GBv7Qy-Bken8bCMUCpsC-1">
          <mxGeometry x="620" y="715" width="260" height="90" as="geometry" />
        </mxCell>
        <mxCell id="GBv7Qy-Bken8bCMUCpsC-21" value="" style="line;strokeWidth=2;html=1;rounded=0;shadow=0;fontSize=27;align=center;fillColor=none;strokeColor=#FFFFFF;" vertex="1" parent="GBv7Qy-Bken8bCMUCpsC-1">
          <mxGeometry x="638" y="485" width="240" height="10" as="geometry" />
        </mxCell>
        <mxCell id="GBv7Qy-Bken8bCMUCpsC-22" value="" style="line;strokeWidth=2;html=1;rounded=0;shadow=0;fontSize=27;align=center;fillColor=none;strokeColor=#FFFFFF;" vertex="1" parent="GBv7Qy-Bken8bCMUCpsC-1">
          <mxGeometry x="638" y="697.5" width="240" height="5" as="geometry" />
        </mxCell>
        <mxCell id="GBv7Qy-Bken8bCMUCpsC-23" value="" style="ellipse;whiteSpace=wrap;html=1;rounded=0;shadow=0;strokeWidth=6;fontSize=14;align=center;" vertex="1" parent="GBv7Qy-Bken8bCMUCpsC-1">
          <mxGeometry x="561" y="545" width="115" height="115" as="geometry" />
        </mxCell>
        <mxCell id="GBv7Qy-Bken8bCMUCpsC-24" value="" style="html=1;shadow=0;dashed=0;align=center;verticalAlign=middle;shape=mxgraph.arrows2.stylisedArrow;dy=0.6;dx=40;notch=15;feather=0.4;rounded=0;strokeWidth=1;fontSize=27;strokeColor=none;fillColor=#fff2cc;" vertex="1" parent="GBv7Qy-Bken8bCMUCpsC-1">
          <mxGeometry x="708" y="573" width="100" height="60" as="geometry" />
        </mxCell>
        <mxCell id="GBv7Qy-Bken8bCMUCpsC-25" value="" style="whiteSpace=wrap;html=1;rounded=1;shadow=0;strokeWidth=8;fontSize=20;align=center;fillColor=#FE9A05;strokeColor=#FFFFFF;" vertex="1" parent="GBv7Qy-Bken8bCMUCpsC-1">
          <mxGeometry x="898" y="405" width="280" height="430" as="geometry" />
        </mxCell>
        <mxCell id="GBv7Qy-Bken8bCMUCpsC-26" value="Migration" style="text;html=1;strokeColor=none;fillColor=none;align=center;verticalAlign=middle;whiteSpace=wrap;rounded=0;shadow=0;fontSize=27;fontColor=#FFFFFF;fontStyle=1" vertex="1" parent="GBv7Qy-Bken8bCMUCpsC-1">
          <mxGeometry x="898" y="425" width="280" height="60" as="geometry" />
        </mxCell>
        <mxCell id="GBv7Qy-Bken8bCMUCpsC-27" value="&lt;div style=&quot;text-align: left&quot;&gt;&lt;span style=&quot;color: rgb(84 , 84 , 84)&quot;&gt;New Infrastructure foundation&lt;/span&gt;&lt;/div&gt;&lt;font color=&quot;#545454&quot;&gt;&lt;div style=&quot;text-align: left&quot;&gt;&lt;span&gt;Establish connectivity between old and&amp;nbsp;&lt;/span&gt;&lt;/div&gt;&lt;div style=&quot;text-align: left&quot;&gt;&lt;span&gt;new datacenter&amp;nbsp;&lt;/span&gt;&lt;/div&gt;&lt;div style=&quot;text-align: left&quot;&gt;&lt;span&gt;Setup pilot infrastructure and validate&amp;nbsp;&lt;/span&gt;&lt;/div&gt;&lt;div style=&quot;text-align: left&quot;&gt;&lt;span&gt;&amp;nbsp;&lt;/span&gt;&lt;/div&gt;&lt;/font&gt;" style="text;html=1;strokeColor=none;fillColor=none;align=center;verticalAlign=middle;whiteSpace=wrap;rounded=0;shadow=0;fontSize=14;fontColor=#FFFFFF;" vertex="1" parent="GBv7Qy-Bken8bCMUCpsC-1">
          <mxGeometry x="898" y="725" width="280" height="90" as="geometry" />
        </mxCell>
        <mxCell id="GBv7Qy-Bken8bCMUCpsC-28" value="" style="line;strokeWidth=2;html=1;rounded=0;shadow=0;fontSize=27;align=center;fillColor=none;strokeColor=#FFFFFF;" vertex="1" parent="GBv7Qy-Bken8bCMUCpsC-1">
          <mxGeometry x="918" y="485" width="240" height="10" as="geometry" />
        </mxCell>
        <mxCell id="GBv7Qy-Bken8bCMUCpsC-29" value="" style="line;strokeWidth=2;html=1;rounded=0;shadow=0;fontSize=27;align=center;fillColor=none;strokeColor=#FFFFFF;" vertex="1" parent="GBv7Qy-Bken8bCMUCpsC-1">
          <mxGeometry x="918" y="705" width="240" height="10" as="geometry" />
        </mxCell>
        <mxCell id="GBv7Qy-Bken8bCMUCpsC-30" value="" style="ellipse;whiteSpace=wrap;html=1;rounded=0;shadow=0;strokeWidth=6;fontSize=14;align=center;" vertex="1" parent="GBv7Qy-Bken8bCMUCpsC-1">
          <mxGeometry x="841" y="545" width="115" height="115" as="geometry" />
        </mxCell>
        <mxCell id="GBv7Qy-Bken8bCMUCpsC-31" value="" style="html=1;shadow=0;dashed=0;align=center;verticalAlign=middle;shape=mxgraph.arrows2.stylisedArrow;dy=0.6;dx=40;notch=15;feather=0.4;rounded=0;strokeWidth=1;fontSize=27;strokeColor=none;fillColor=#fff2cc;" vertex="1" parent="GBv7Qy-Bken8bCMUCpsC-1">
          <mxGeometry x="988" y="573" width="100" height="60" as="geometry" />
        </mxCell>
        <mxCell id="GBv7Qy-Bken8bCMUCpsC-32" value="" style="ellipse;whiteSpace=wrap;html=1;rounded=0;shadow=0;strokeWidth=6;fontSize=14;align=center;" vertex="1" parent="GBv7Qy-Bken8bCMUCpsC-1">
          <mxGeometry x="1121" y="545" width="115" height="115" as="geometry" />
        </mxCell>
        <mxCell id="GBv7Qy-Bken8bCMUCpsC-33" value="&lt;h2&gt;&lt;font size=&quot;1&quot; color=&quot;#ffffff&quot;&gt;&lt;b style=&quot;font-size: 42px&quot;&gt;Migration Planning&amp;nbsp;&lt;/b&gt;&lt;/font&gt;&lt;/h2&gt;" style="rounded=1;whiteSpace=wrap;html=1;strokeColor=#006EAF;fillColor=#006666;fontColor=#ffffff;" vertex="1" parent="GBv7Qy-Bken8bCMUCpsC-1">
          <mxGeometry x="58" y="320" width="1680" height="60" as="geometry" />
        </mxCell>
        <mxCell id="GBv7Qy-Bken8bCMUCpsC-34" value="Post Migration Tasks" style="text;html=1;strokeColor=none;fillColor=none;align=center;verticalAlign=middle;whiteSpace=wrap;rounded=0;shadow=0;fontSize=27;fontColor=#FFFFFF;fontStyle=1" vertex="1" parent="GBv7Qy-Bken8bCMUCpsC-1">
          <mxGeometry x="1458" y="420" width="280" height="60" as="geometry" />
        </mxCell>
        <mxCell id="GBv7Qy-Bken8bCMUCpsC-35" value="&lt;div style=&quot;text-align: left&quot;&gt;&lt;span style=&quot;color: rgb(84 , 84 , 84)&quot;&gt;New Infrastructure foundation&lt;/span&gt;&lt;/div&gt;&lt;font color=&quot;#545454&quot;&gt;&lt;div style=&quot;text-align: left&quot;&gt;&lt;span&gt;Establish connectivity between old and&amp;nbsp;&lt;/span&gt;&lt;/div&gt;&lt;div style=&quot;text-align: left&quot;&gt;&lt;span&gt;new datacenter&amp;nbsp;&lt;/span&gt;&lt;/div&gt;&lt;div style=&quot;text-align: left&quot;&gt;&lt;span&gt;Setup pilot infrastructure and validate&amp;nbsp;&lt;/span&gt;&lt;/div&gt;&lt;div style=&quot;text-align: left&quot;&gt;&lt;span&gt;&amp;nbsp;&lt;/span&gt;&lt;/div&gt;&lt;/font&gt;" style="text;html=1;strokeColor=none;fillColor=none;align=center;verticalAlign=middle;whiteSpace=wrap;rounded=0;shadow=0;fontSize=14;fontColor=#FFFFFF;" vertex="1" parent="GBv7Qy-Bken8bCMUCpsC-1">
          <mxGeometry x="1458" y="732.5" width="280" height="90" as="geometry" />
        </mxCell>
        <mxCell id="GBv7Qy-Bken8bCMUCpsC-36" value="" style="line;strokeWidth=2;html=1;rounded=0;shadow=0;fontSize=27;align=center;fillColor=none;strokeColor=#FFFFFF;" vertex="1" parent="GBv7Qy-Bken8bCMUCpsC-1">
          <mxGeometry x="1478" y="480" width="240" height="10" as="geometry" />
        </mxCell>
        <mxCell id="GBv7Qy-Bken8bCMUCpsC-37" value="" style="line;strokeWidth=2;html=1;rounded=0;shadow=0;fontSize=27;align=center;fillColor=none;strokeColor=#FFFFFF;" vertex="1" parent="GBv7Qy-Bken8bCMUCpsC-1">
          <mxGeometry x="1478" y="708" width="240" height="10" as="geometry" />
        </mxCell>
        <mxCell id="GBv7Qy-Bken8bCMUCpsC-38" value="" style="ellipse;whiteSpace=wrap;html=1;rounded=0;shadow=0;strokeWidth=6;fontSize=14;align=center;" vertex="1" parent="GBv7Qy-Bken8bCMUCpsC-1">
          <mxGeometry x="1384" y="545.5" width="115" height="115" as="geometry" />
        </mxCell>
        <mxCell id="GBv7Qy-Bken8bCMUCpsC-39" value="" style="html=1;shadow=0;dashed=0;align=center;verticalAlign=middle;shape=mxgraph.arrows2.stylisedArrow;dy=0.6;dx=40;notch=15;feather=0.4;rounded=0;strokeWidth=1;fontSize=27;strokeColor=none;fillColor=#fff2cc;" vertex="1" parent="GBv7Qy-Bken8bCMUCpsC-1">
          <mxGeometry x="1268" y="572.5" width="100" height="60" as="geometry" />
        </mxCell>
        <mxCell id="GBv7Qy-Bken8bCMUCpsC-40" value="" style="line;strokeWidth=2;html=1;rounded=0;shadow=0;fontSize=27;align=center;fillColor=none;strokeColor=#FFFFFF;" vertex="1" parent="GBv7Qy-Bken8bCMUCpsC-1">
          <mxGeometry x="1189" y="485" width="240" height="10" as="geometry" />
        </mxCell>
        <mxCell id="GBv7Qy-Bken8bCMUCpsC-41" value="&lt;div style=&quot;text-align: left&quot;&gt;&lt;span style=&quot;color: rgb(84 , 84 , 84)&quot;&gt;New Infrastructure foundation&lt;/span&gt;&lt;/div&gt;&lt;font color=&quot;#545454&quot;&gt;&lt;div style=&quot;text-align: left&quot;&gt;&lt;span&gt;Establish connectivity between old and&amp;nbsp;&lt;/span&gt;&lt;/div&gt;&lt;div style=&quot;text-align: left&quot;&gt;&lt;span&gt;new datacenter&amp;nbsp;&lt;/span&gt;&lt;/div&gt;&lt;div style=&quot;text-align: left&quot;&gt;&lt;span&gt;Setup pilot infrastructure and validate&amp;nbsp;&lt;/span&gt;&lt;/div&gt;&lt;div style=&quot;text-align: left&quot;&gt;&lt;span&gt;&amp;nbsp;&lt;/span&gt;&lt;/div&gt;&lt;/font&gt;" style="text;html=1;strokeColor=none;fillColor=none;align=center;verticalAlign=middle;whiteSpace=wrap;rounded=0;shadow=0;fontSize=14;fontColor=#FFFFFF;" vertex="1" parent="GBv7Qy-Bken8bCMUCpsC-1">
          <mxGeometry x="1178" y="728" width="280" height="90" as="geometry" />
        </mxCell>
        <mxCell id="GBv7Qy-Bken8bCMUCpsC-42" value="" style="line;strokeWidth=2;html=1;rounded=0;shadow=0;fontSize=27;align=center;fillColor=none;strokeColor=#FFFFFF;" vertex="1" parent="GBv7Qy-Bken8bCMUCpsC-1">
          <mxGeometry x="1198" y="705" width="240" height="10" as="geometry" />
        </mxCell>
        <mxCell id="GBv7Qy-Bken8bCMUCpsC-43" value="Validation and Acceptance&amp;nbsp;" style="text;html=1;strokeColor=none;fillColor=none;align=center;verticalAlign=middle;whiteSpace=wrap;rounded=0;shadow=0;fontSize=27;fontColor=#FFFFFF;fontStyle=1" vertex="1" parent="GBv7Qy-Bken8bCMUCpsC-1">
          <mxGeometry x="1178" y="425" width="280" height="60" as="geometry" />
        </mxCell>
        <mxCell id="GBv7Qy-Bken8bCMUCpsC-44" value="" style="aspect=fixed;perimeter=ellipsePerimeter;html=1;align=center;shadow=0;dashed=0;spacingTop=3;image;image=img/lib/active_directory/writer.svg;fontColor=#333333;fillColor=#006666;" vertex="1" parent="GBv7Qy-Bken8bCMUCpsC-1">
          <mxGeometry x="298.5" y="557.5500000000001" width="80" height="83.33" as="geometry" />
        </mxCell>
        <mxCell id="GBv7Qy-Bken8bCMUCpsC-45" value="" style="outlineConnect=0;dashed=0;verticalLabelPosition=bottom;verticalAlign=top;align=center;html=1;shape=mxgraph.aws3.worker;fillColor=#D9A741;gradientColor=none;fontColor=#333333;" vertex="1" parent="GBv7Qy-Bken8bCMUCpsC-1">
          <mxGeometry x="400" y="110" width="60" height="63" as="geometry" />
        </mxCell>
        <mxCell id="GBv7Qy-Bken8bCMUCpsC-46" value="Reserved Instance Reporting" style="sketch=0;outlineConnect=0;fontColor=#232F3E;gradientColor=none;strokeColor=#ffffff;fillColor=#232F3E;dashed=0;verticalLabelPosition=middle;verticalAlign=bottom;align=center;html=1;whiteSpace=wrap;fontSize=10;fontStyle=1;spacing=3;shape=mxgraph.aws4.productIcon;prIcon=mxgraph.aws4.reserved_instance_reporting;" vertex="1" parent="GBv7Qy-Bken8bCMUCpsC-1">
          <mxGeometry x="290" y="1010" width="80" height="120" as="geometry" />
        </mxCell>
        <mxCell id="GBv7Qy-Bken8bCMUCpsC-47" value="Rule" style="sketch=0;outlineConnect=0;fontColor=#232F3E;gradientColor=none;strokeColor=#232F3E;fillColor=#ffffff;dashed=0;verticalLabelPosition=bottom;verticalAlign=top;align=center;html=1;fontSize=12;fontStyle=0;aspect=fixed;shape=mxgraph.aws4.resourceIcon;resIcon=mxgraph.aws4.rule_2;" vertex="1" parent="GBv7Qy-Bken8bCMUCpsC-1">
          <mxGeometry x="1134.64" y="555.36" width="87.72" height="87.72" as="geometry" />
        </mxCell>
        <mxCell id="GBv7Qy-Bken8bCMUCpsC-48" value="" style="sketch=0;outlineConnect=0;fontColor=#232F3E;gradientColor=none;fillColor=#FF9900;strokeColor=none;dashed=0;verticalLabelPosition=bottom;verticalAlign=top;align=center;html=1;fontSize=12;fontStyle=0;aspect=fixed;pointerEvents=1;shape=mxgraph.aws4.ecs_task;" vertex="1" parent="GBv7Qy-Bken8bCMUCpsC-1">
          <mxGeometry x="1595" y="1000" width="37" height="48" as="geometry" />
        </mxCell>
        <mxCell id="GBv7Qy-Bken8bCMUCpsC-49" value="" style="sketch=0;outlineConnect=0;fontColor=#232F3E;gradientColor=none;fillColor=#6CAE3E;strokeColor=none;dashed=0;verticalLabelPosition=bottom;verticalAlign=top;align=center;html=1;fontSize=12;fontStyle=0;aspect=fixed;pointerEvents=1;shape=mxgraph.aws4.iot_device_jobs_resource;" vertex="1" parent="GBv7Qy-Bken8bCMUCpsC-1">
          <mxGeometry x="708" y="970" width="64" height="78" as="geometry" />
        </mxCell>
        <mxCell id="GBv7Qy-Bken8bCMUCpsC-50" value="" style="sketch=0;outlineConnect=0;fontColor=#232F3E;gradientColor=none;fillColor=#FF4F8B;strokeColor=none;dashed=0;verticalLabelPosition=bottom;verticalAlign=top;align=center;html=1;fontSize=12;fontStyle=0;aspect=fixed;pointerEvents=1;shape=mxgraph.aws4.documents;" vertex="1" parent="GBv7Qy-Bken8bCMUCpsC-1">
          <mxGeometry x="876.5" y="1070" width="64" height="78" as="geometry" />
        </mxCell>
        <mxCell id="GBv7Qy-Bken8bCMUCpsC-51" value="" style="sketch=0;outlineConnect=0;fontColor=#232F3E;gradientColor=none;fillColor=#FF4F8B;strokeColor=none;dashed=0;verticalLabelPosition=bottom;verticalAlign=top;align=center;html=1;fontSize=12;fontStyle=0;aspect=fixed;pointerEvents=1;shape=mxgraph.aws4.checklist;" vertex="1" parent="GBv7Qy-Bken8bCMUCpsC-1">
          <mxGeometry x="572" y="1070" width="66" height="78" as="geometry" />
        </mxCell>
        <mxCell id="GBv7Qy-Bken8bCMUCpsC-52" value="" style="sketch=0;outlineConnect=0;fontColor=#232F3E;gradientColor=none;strokeColor=none;dashed=0;verticalLabelPosition=bottom;verticalAlign=top;align=center;html=1;fontSize=12;fontStyle=0;aspect=fixed;pointerEvents=1;shape=mxgraph.aws4.systems_manager_opscenter;fillColor=#190033;" vertex="1" parent="GBv7Qy-Bken8bCMUCpsC-1">
          <mxGeometry x="1400" y="561" width="79" height="79" as="geometry" />
        </mxCell>
        <mxCell id="GBv7Qy-Bken8bCMUCpsC-53" value="" style="aspect=fixed;html=1;points=[];align=center;image;fontSize=12;image=img/lib/azure2/ai_machine_learning/Cognitive_Services.svg;fontColor=#333333;fillColor=#006666;" vertex="1" parent="GBv7Qy-Bken8bCMUCpsC-1">
          <mxGeometry x="1200" y="980" width="68" height="48" as="geometry" />
        </mxCell>
        <mxCell id="GBv7Qy-Bken8bCMUCpsC-54" value="" style="sketch=0;pointerEvents=1;shadow=0;dashed=0;html=1;strokeColor=none;fillColor=#505050;labelPosition=center;verticalLabelPosition=bottom;verticalAlign=top;outlineConnect=0;align=center;shape=mxgraph.office.communications.discovery_search_mailbox;fontColor=#333333;" vertex="1" parent="GBv7Qy-Bken8bCMUCpsC-1">
          <mxGeometry x="-1" y="990" width="119" height="69.22" as="geometry" />
        </mxCell>
        <mxCell id="GBv7Qy-Bken8bCMUCpsC-55" value="" style="sketch=0;aspect=fixed;html=1;points=[];align=center;image;fontSize=12;image=img/lib/mscae/Batch_AI.svg;fillColor=#006666;fontColor=#333333;" vertex="1" parent="GBv7Qy-Bken8bCMUCpsC-1">
          <mxGeometry x="860.92" y="555.36" width="74.16" height="103" as="geometry" />
        </mxCell>
        <mxCell id="GBv7Qy-Bken8bCMUCpsC-56" value="" style="sketch=0;pointerEvents=1;shadow=0;dashed=0;html=1;strokeColor=none;labelPosition=center;verticalLabelPosition=bottom;verticalAlign=top;align=center;fillColor=#505050;shape=mxgraph.mscae.oms.log_search;fontColor=#333333;" vertex="1" parent="GBv7Qy-Bken8bCMUCpsC-1">
          <mxGeometry x="-1" y="574" width="72" height="59" as="geometry" />
        </mxCell>
        <mxCell id="GBv7Qy-Bken8bCMUCpsC-57" value="" style="sketch=0;pointerEvents=1;shadow=0;dashed=0;html=1;strokeColor=none;labelPosition=center;verticalLabelPosition=bottom;verticalAlign=top;align=center;fillColor=#505050;shape=mxgraph.mscae.oms.log_management;fontColor=#333333;" vertex="1" parent="GBv7Qy-Bken8bCMUCpsC-1">
          <mxGeometry x="52" y="571.5" width="49" height="67.5" as="geometry" />
        </mxCell>
        <mxCell id="GBv7Qy-Bken8bCMUCpsC-58" value="" style="sketch=0;outlineConnect=0;fontColor=#232F3E;gradientColor=none;strokeColor=none;dashed=0;verticalLabelPosition=bottom;verticalAlign=top;align=center;html=1;fontSize=12;fontStyle=0;aspect=fixed;pointerEvents=1;shape=mxgraph.aws4.organizations_management_account;fillColor=#000033;" vertex="1" parent="GBv7Qy-Bken8bCMUCpsC-1">
          <mxGeometry x="570" y="552.96" width="92.07" height="97.04" as="geometry" />
        </mxCell>
        <mxCell id="GBv7Qy-Bken8bCMUCpsC-59" value="" style="outlineConnect=0;dashed=0;verticalLabelPosition=bottom;verticalAlign=top;align=center;html=1;shape=mxgraph.aws3.users;gradientColor=none;fontColor=#333333;fillColor=#333333;" vertex="1" parent="GBv7Qy-Bken8bCMUCpsC-1">
          <mxGeometry x="1590" y="550" width="86" height="86" as="geometry" />
        </mxCell>
      </root>
    </mxGraphModel>
  </diagram>
</mxfile>
